<mxfile host="app.diagrams.net" agent="Mozilla/5.0 (Windows NT 10.0; Win64; x64) AppleWebKit/537.36 (KHTML, like Gecko) Chrome/141.0.0.0 Safari/537.36 Edg/141.0.0.0" version="28.2.8">
  <diagram name="Page-1" id="MzJ_nT4LreOSaZLbP-9O">
    <mxGraphModel dx="869" dy="565" grid="1" gridSize="10" guides="1" tooltips="1" connect="1" arrows="1" fold="1" page="1" pageScale="1" pageWidth="850" pageHeight="1100" math="0" shadow="0">
      <root>
        <mxCell id="0" />
        <mxCell id="1" parent="0" />
        <mxCell id="xtXBXruxO_-biEpYpfWu-31" style="edgeStyle=orthogonalEdgeStyle;rounded=0;orthogonalLoop=1;jettySize=auto;html=1;exitX=0;exitY=0.5;exitDx=0;exitDy=0;exitPerimeter=0;entryX=0.5;entryY=0;entryDx=0;entryDy=0;" edge="1" parent="1" source="xtXBXruxO_-biEpYpfWu-22" target="xtXBXruxO_-biEpYpfWu-29">
          <mxGeometry relative="1" as="geometry" />
        </mxCell>
        <mxCell id="xtXBXruxO_-biEpYpfWu-22" value="start" style="strokeWidth=2;html=1;shape=mxgraph.flowchart.start_2;whiteSpace=wrap;direction=north;fillColor=#CCFFCC;" vertex="1" parent="1">
          <mxGeometry x="380" y="40" width="60" height="60" as="geometry" />
        </mxCell>
        <mxCell id="xtXBXruxO_-biEpYpfWu-37" style="edgeStyle=orthogonalEdgeStyle;rounded=0;orthogonalLoop=1;jettySize=auto;html=1;exitX=0;exitY=0.5;exitDx=0;exitDy=0;exitPerimeter=0;entryX=0.5;entryY=0;entryDx=0;entryDy=0;" edge="1" parent="1" source="xtXBXruxO_-biEpYpfWu-27" target="xtXBXruxO_-biEpYpfWu-58">
          <mxGeometry relative="1" as="geometry">
            <mxPoint x="250" y="580" as="targetPoint" />
          </mxGeometry>
        </mxCell>
        <mxCell id="xtXBXruxO_-biEpYpfWu-41" value="True" style="edgeLabel;html=1;align=center;verticalAlign=middle;resizable=0;points=[];" vertex="1" connectable="0" parent="xtXBXruxO_-biEpYpfWu-37">
          <mxGeometry x="-0.1747" y="1" relative="1" as="geometry">
            <mxPoint x="6" y="-1" as="offset" />
          </mxGeometry>
        </mxCell>
        <mxCell id="xtXBXruxO_-biEpYpfWu-27" value="&lt;div&gt;&lt;span style=&quot;background-color: transparent; color: light-dark(rgb(0, 0, 0), rgb(255, 255, 255));&quot;&gt;is importer&lt;/span&gt;&lt;/div&gt;" style="strokeWidth=2;html=1;shape=mxgraph.flowchart.decision;whiteSpace=wrap;" vertex="1" parent="1">
          <mxGeometry x="361" y="400" width="97.5" height="90" as="geometry" />
        </mxCell>
        <mxCell id="xtXBXruxO_-biEpYpfWu-29" value="&lt;span style=&quot;&quot;&gt;- constants&lt;/span&gt;&lt;div&gt;&lt;span style=&quot;background-color: transparent; color: light-dark(rgb(0, 0, 0), rgb(255, 255, 255));&quot;&gt;&amp;nbsp;- databases&lt;/span&gt;&lt;/div&gt;&lt;div&gt;&lt;span style=&quot;background-color: transparent; color: light-dark(rgb(0, 0, 0), rgb(255, 255, 255));&quot;&gt;- analyzers&lt;/span&gt;&lt;/div&gt;&lt;div&gt;&lt;span style=&quot;background-color: transparent; color: light-dark(rgb(0, 0, 0), rgb(255, 255, 255));&quot;&gt;&amp;nbsp;- searchers&lt;/span&gt;&lt;/div&gt;" style="shape=parallelogram;html=1;strokeWidth=2;perimeter=parallelogramPerimeter;whiteSpace=wrap;rounded=1;arcSize=12;size=0.23;align=center;" vertex="1" parent="1">
          <mxGeometry x="349.75" y="130" width="120" height="70" as="geometry" />
        </mxCell>
        <mxCell id="xtXBXruxO_-biEpYpfWu-39" style="edgeStyle=orthogonalEdgeStyle;rounded=0;orthogonalLoop=1;jettySize=auto;html=1;exitX=1;exitY=0.5;exitDx=0;exitDy=0;exitPerimeter=0;entryX=0.5;entryY=0;entryDx=0;entryDy=0;entryPerimeter=0;" edge="1" parent="1" source="xtXBXruxO_-biEpYpfWu-27" target="xtXBXruxO_-biEpYpfWu-72">
          <mxGeometry relative="1" as="geometry">
            <mxPoint x="600" y="670" as="targetPoint" />
          </mxGeometry>
        </mxCell>
        <mxCell id="xtXBXruxO_-biEpYpfWu-43" value="False" style="edgeLabel;html=1;align=center;verticalAlign=middle;resizable=0;points=[];" vertex="1" connectable="0" parent="xtXBXruxO_-biEpYpfWu-39">
          <mxGeometry x="-0.5037" relative="1" as="geometry">
            <mxPoint x="23" as="offset" />
          </mxGeometry>
        </mxCell>
        <mxCell id="xtXBXruxO_-biEpYpfWu-58" value="import via importer" style="rounded=1;whiteSpace=wrap;html=1;" vertex="1" parent="1">
          <mxGeometry x="190" y="520" width="120" height="60" as="geometry" />
        </mxCell>
        <mxCell id="xtXBXruxO_-biEpYpfWu-59" value="&lt;div&gt;&lt;span style=&quot;background-color: transparent; color: light-dark(rgb(0, 0, 0), rgb(255, 255, 255));&quot;&gt;read JSON&lt;/span&gt;&lt;/div&gt;" style="rounded=1;whiteSpace=wrap;html=1;" vertex="1" parent="1">
          <mxGeometry x="410" y="620" width="120" height="60" as="geometry" />
        </mxCell>
        <mxCell id="xtXBXruxO_-biEpYpfWu-85" style="edgeStyle=orthogonalEdgeStyle;rounded=0;orthogonalLoop=1;jettySize=auto;html=1;exitX=0.5;exitY=1;exitDx=0;exitDy=0;entryX=0.5;entryY=0;entryDx=0;entryDy=0;" edge="1" parent="1" source="xtXBXruxO_-biEpYpfWu-63" target="xtXBXruxO_-biEpYpfWu-83">
          <mxGeometry relative="1" as="geometry">
            <Array as="points">
              <mxPoint x="350" y="1030" />
              <mxPoint x="470" y="1030" />
            </Array>
          </mxGeometry>
        </mxCell>
        <mxCell id="xtXBXruxO_-biEpYpfWu-63" value="import from JSON" style="rounded=1;whiteSpace=wrap;html=1;" vertex="1" parent="1">
          <mxGeometry x="290" y="830" width="120" height="60" as="geometry" />
        </mxCell>
        <mxCell id="xtXBXruxO_-biEpYpfWu-66" style="edgeStyle=orthogonalEdgeStyle;rounded=0;orthogonalLoop=1;jettySize=auto;html=1;exitX=0;exitY=0.5;exitDx=0;exitDy=0;exitPerimeter=0;entryX=0.5;entryY=0;entryDx=0;entryDy=0;" edge="1" parent="1" source="xtXBXruxO_-biEpYpfWu-64" target="xtXBXruxO_-biEpYpfWu-63">
          <mxGeometry relative="1" as="geometry" />
        </mxCell>
        <mxCell id="xtXBXruxO_-biEpYpfWu-68" value="False" style="edgeLabel;html=1;align=center;verticalAlign=middle;resizable=0;points=[];" vertex="1" connectable="0" parent="xtXBXruxO_-biEpYpfWu-66">
          <mxGeometry x="-0.3216" y="2" relative="1" as="geometry">
            <mxPoint as="offset" />
          </mxGeometry>
        </mxCell>
        <mxCell id="xtXBXruxO_-biEpYpfWu-70" style="edgeStyle=orthogonalEdgeStyle;rounded=0;orthogonalLoop=1;jettySize=auto;html=1;exitX=1;exitY=0.5;exitDx=0;exitDy=0;exitPerimeter=0;entryX=0.5;entryY=0;entryDx=0;entryDy=0;" edge="1" parent="1" source="xtXBXruxO_-biEpYpfWu-64" target="xtXBXruxO_-biEpYpfWu-69">
          <mxGeometry relative="1" as="geometry" />
        </mxCell>
        <mxCell id="xtXBXruxO_-biEpYpfWu-71" value="True" style="edgeLabel;html=1;align=center;verticalAlign=middle;resizable=0;points=[];" vertex="1" connectable="0" parent="xtXBXruxO_-biEpYpfWu-70">
          <mxGeometry x="-0.2429" y="1" relative="1" as="geometry">
            <mxPoint x="-13" y="1" as="offset" />
          </mxGeometry>
        </mxCell>
        <mxCell id="xtXBXruxO_-biEpYpfWu-64" value="write to DB" style="strokeWidth=2;html=1;shape=mxgraph.flowchart.decision;whiteSpace=wrap;" vertex="1" parent="1">
          <mxGeometry x="420" y="720" width="100" height="100" as="geometry" />
        </mxCell>
        <mxCell id="xtXBXruxO_-biEpYpfWu-65" style="edgeStyle=orthogonalEdgeStyle;rounded=0;orthogonalLoop=1;jettySize=auto;html=1;exitX=0.5;exitY=1;exitDx=0;exitDy=0;entryX=0.5;entryY=0;entryDx=0;entryDy=0;entryPerimeter=0;" edge="1" parent="1" source="xtXBXruxO_-biEpYpfWu-59" target="xtXBXruxO_-biEpYpfWu-64">
          <mxGeometry relative="1" as="geometry" />
        </mxCell>
        <mxCell id="xtXBXruxO_-biEpYpfWu-82" style="edgeStyle=orthogonalEdgeStyle;rounded=0;orthogonalLoop=1;jettySize=auto;html=1;exitX=1;exitY=0.5;exitDx=0;exitDy=0;entryX=0.5;entryY=0;entryDx=0;entryDy=0;" edge="1" parent="1" source="xtXBXruxO_-biEpYpfWu-69" target="xtXBXruxO_-biEpYpfWu-76">
          <mxGeometry relative="1" as="geometry" />
        </mxCell>
        <mxCell id="xtXBXruxO_-biEpYpfWu-69" value="write to DB" style="rounded=1;whiteSpace=wrap;html=1;" vertex="1" parent="1">
          <mxGeometry x="550" y="830" width="120" height="60" as="geometry" />
        </mxCell>
        <mxCell id="xtXBXruxO_-biEpYpfWu-73" style="edgeStyle=orthogonalEdgeStyle;rounded=0;orthogonalLoop=1;jettySize=auto;html=1;exitX=0;exitY=0.5;exitDx=0;exitDy=0;exitPerimeter=0;" edge="1" parent="1" source="xtXBXruxO_-biEpYpfWu-72" target="xtXBXruxO_-biEpYpfWu-59">
          <mxGeometry relative="1" as="geometry" />
        </mxCell>
        <mxCell id="xtXBXruxO_-biEpYpfWu-75" value="False" style="edgeLabel;html=1;align=center;verticalAlign=middle;resizable=0;points=[];" vertex="1" connectable="0" parent="xtXBXruxO_-biEpYpfWu-73">
          <mxGeometry x="-0.4492" y="-3" relative="1" as="geometry">
            <mxPoint x="-4" y="3" as="offset" />
          </mxGeometry>
        </mxCell>
        <mxCell id="xtXBXruxO_-biEpYpfWu-80" style="edgeStyle=orthogonalEdgeStyle;rounded=0;orthogonalLoop=1;jettySize=auto;html=1;exitX=1;exitY=0.5;exitDx=0;exitDy=0;exitPerimeter=0;entryX=0.5;entryY=0;entryDx=0;entryDy=0;" edge="1" parent="1" source="xtXBXruxO_-biEpYpfWu-72" target="xtXBXruxO_-biEpYpfWu-76">
          <mxGeometry relative="1" as="geometry" />
        </mxCell>
        <mxCell id="xtXBXruxO_-biEpYpfWu-81" value="True" style="edgeLabel;html=1;align=center;verticalAlign=middle;resizable=0;points=[];" vertex="1" connectable="0" parent="xtXBXruxO_-biEpYpfWu-80">
          <mxGeometry x="-0.0174" y="5" relative="1" as="geometry">
            <mxPoint x="-65" y="-141" as="offset" />
          </mxGeometry>
        </mxCell>
        <mxCell id="xtXBXruxO_-biEpYpfWu-72" value="fetch from DB" style="strokeWidth=2;html=1;shape=mxgraph.flowchart.decision;whiteSpace=wrap;" vertex="1" parent="1">
          <mxGeometry x="560" y="510" width="100" height="100" as="geometry" />
        </mxCell>
        <mxCell id="xtXBXruxO_-biEpYpfWu-86" style="edgeStyle=orthogonalEdgeStyle;rounded=0;orthogonalLoop=1;jettySize=auto;html=1;exitX=0.5;exitY=1;exitDx=0;exitDy=0;entryX=0.5;entryY=0;entryDx=0;entryDy=0;" edge="1" parent="1" source="xtXBXruxO_-biEpYpfWu-76" target="xtXBXruxO_-biEpYpfWu-83">
          <mxGeometry relative="1" as="geometry" />
        </mxCell>
        <mxCell id="xtXBXruxO_-biEpYpfWu-76" value="fetch from DB" style="rounded=1;whiteSpace=wrap;html=1;" vertex="1" parent="1">
          <mxGeometry x="690" y="930" width="120" height="60" as="geometry" />
        </mxCell>
        <mxCell id="xtXBXruxO_-biEpYpfWu-92" style="edgeStyle=orthogonalEdgeStyle;rounded=0;orthogonalLoop=1;jettySize=auto;html=1;exitX=1;exitY=0.5;exitDx=0;exitDy=0;entryX=0.5;entryY=0;entryDx=0;entryDy=0;" edge="1" parent="1" source="xtXBXruxO_-biEpYpfWu-83" target="xtXBXruxO_-biEpYpfWu-91">
          <mxGeometry relative="1" as="geometry" />
        </mxCell>
        <mxCell id="xtXBXruxO_-biEpYpfWu-93" value="True" style="edgeLabel;html=1;align=center;verticalAlign=middle;resizable=0;points=[];" vertex="1" connectable="0" parent="xtXBXruxO_-biEpYpfWu-92">
          <mxGeometry x="-0.1694" relative="1" as="geometry">
            <mxPoint x="-28" as="offset" />
          </mxGeometry>
        </mxCell>
        <mxCell id="xtXBXruxO_-biEpYpfWu-83" value="export" style="rhombus;whiteSpace=wrap;html=1;" vertex="1" parent="1">
          <mxGeometry x="430" y="1070" width="80" height="80" as="geometry" />
        </mxCell>
        <mxCell id="xtXBXruxO_-biEpYpfWu-91" value="export to file" style="rounded=1;whiteSpace=wrap;html=1;" vertex="1" parent="1">
          <mxGeometry x="530" y="1170" width="120" height="60" as="geometry" />
        </mxCell>
        <mxCell id="xtXBXruxO_-biEpYpfWu-95" value="join" style="strokeWidth=2;html=1;shape=mxgraph.flowchart.merge_or_storage;whiteSpace=wrap;" vertex="1" parent="1">
          <mxGeometry x="310" y="1310" width="95" height="50" as="geometry" />
        </mxCell>
        <mxCell id="xtXBXruxO_-biEpYpfWu-96" style="edgeStyle=orthogonalEdgeStyle;rounded=0;orthogonalLoop=1;jettySize=auto;html=1;exitX=0.5;exitY=1;exitDx=0;exitDy=0;entryX=0.5;entryY=0;entryDx=0;entryDy=0;entryPerimeter=0;" edge="1" parent="1" source="xtXBXruxO_-biEpYpfWu-91" target="xtXBXruxO_-biEpYpfWu-95">
          <mxGeometry relative="1" as="geometry" />
        </mxCell>
        <mxCell id="xtXBXruxO_-biEpYpfWu-97" style="edgeStyle=orthogonalEdgeStyle;rounded=0;orthogonalLoop=1;jettySize=auto;html=1;exitX=0;exitY=0.5;exitDx=0;exitDy=0;entryX=0.5;entryY=0;entryDx=0;entryDy=0;entryPerimeter=0;" edge="1" parent="1" source="xtXBXruxO_-biEpYpfWu-83" target="xtXBXruxO_-biEpYpfWu-95">
          <mxGeometry relative="1" as="geometry" />
        </mxCell>
        <mxCell id="xtXBXruxO_-biEpYpfWu-98" value="False" style="edgeLabel;html=1;align=center;verticalAlign=middle;resizable=0;points=[];" vertex="1" connectable="0" parent="xtXBXruxO_-biEpYpfWu-97">
          <mxGeometry x="-0.6379" relative="1" as="geometry">
            <mxPoint x="20" as="offset" />
          </mxGeometry>
        </mxCell>
        <mxCell id="xtXBXruxO_-biEpYpfWu-99" style="edgeStyle=orthogonalEdgeStyle;rounded=0;orthogonalLoop=1;jettySize=auto;html=1;exitX=0.5;exitY=1;exitDx=0;exitDy=0;entryX=0.5;entryY=0;entryDx=0;entryDy=0;entryPerimeter=0;" edge="1" parent="1" source="xtXBXruxO_-biEpYpfWu-58" target="xtXBXruxO_-biEpYpfWu-95">
          <mxGeometry relative="1" as="geometry">
            <Array as="points">
              <mxPoint x="250" y="1270" />
              <mxPoint x="358" y="1270" />
            </Array>
          </mxGeometry>
        </mxCell>
        <mxCell id="xtXBXruxO_-biEpYpfWu-107" value="" style="edgeStyle=orthogonalEdgeStyle;rounded=0;orthogonalLoop=1;jettySize=auto;html=1;" edge="1" parent="1" source="xtXBXruxO_-biEpYpfWu-104" target="xtXBXruxO_-biEpYpfWu-27">
          <mxGeometry relative="1" as="geometry" />
        </mxCell>
        <mxCell id="xtXBXruxO_-biEpYpfWu-104" value="for each DB" style="ellipse;shape=umlControl;whiteSpace=wrap;html=1;" vertex="1" parent="1">
          <mxGeometry x="369.75" y="250" width="80" height="90" as="geometry" />
        </mxCell>
        <mxCell id="xtXBXruxO_-biEpYpfWu-106" style="edgeStyle=orthogonalEdgeStyle;rounded=0;orthogonalLoop=1;jettySize=auto;html=1;exitX=0.5;exitY=1;exitDx=0;exitDy=0;entryX=0.507;entryY=0.131;entryDx=0;entryDy=0;entryPerimeter=0;" edge="1" parent="1" source="xtXBXruxO_-biEpYpfWu-29" target="xtXBXruxO_-biEpYpfWu-104">
          <mxGeometry relative="1" as="geometry" />
        </mxCell>
        <mxCell id="xtXBXruxO_-biEpYpfWu-112" value="" style="edgeStyle=orthogonalEdgeStyle;rounded=0;orthogonalLoop=1;jettySize=auto;html=1;" edge="1" parent="1" source="xtXBXruxO_-biEpYpfWu-108" target="xtXBXruxO_-biEpYpfWu-111">
          <mxGeometry relative="1" as="geometry" />
        </mxCell>
        <mxCell id="xtXBXruxO_-biEpYpfWu-108" value="for each analyzer" style="ellipse;shape=umlControl;whiteSpace=wrap;html=1;" vertex="1" parent="1">
          <mxGeometry x="317.5" y="1430" width="80" height="90" as="geometry" />
        </mxCell>
        <mxCell id="xtXBXruxO_-biEpYpfWu-109" style="edgeStyle=orthogonalEdgeStyle;rounded=0;orthogonalLoop=1;jettySize=auto;html=1;exitX=0.5;exitY=1;exitDx=0;exitDy=0;exitPerimeter=0;entryX=0.495;entryY=0.113;entryDx=0;entryDy=0;entryPerimeter=0;" edge="1" parent="1" source="xtXBXruxO_-biEpYpfWu-95" target="xtXBXruxO_-biEpYpfWu-108">
          <mxGeometry relative="1" as="geometry" />
        </mxCell>
        <mxCell id="xtXBXruxO_-biEpYpfWu-110" value="import via importer" style="rounded=1;whiteSpace=wrap;html=1;" vertex="1" parent="1">
          <mxGeometry x="140" y="1650" width="120" height="60" as="geometry" />
        </mxCell>
        <mxCell id="xtXBXruxO_-biEpYpfWu-113" style="edgeStyle=orthogonalEdgeStyle;rounded=0;orthogonalLoop=1;jettySize=auto;html=1;exitX=0;exitY=0.5;exitDx=0;exitDy=0;entryX=0.5;entryY=0;entryDx=0;entryDy=0;" edge="1" parent="1" source="xtXBXruxO_-biEpYpfWu-111" target="xtXBXruxO_-biEpYpfWu-110">
          <mxGeometry relative="1" as="geometry" />
        </mxCell>
        <mxCell id="xtXBXruxO_-biEpYpfWu-119" value="True" style="edgeLabel;html=1;align=center;verticalAlign=middle;resizable=0;points=[];" vertex="1" connectable="0" parent="xtXBXruxO_-biEpYpfWu-113">
          <mxGeometry x="-0.424" y="-1" relative="1" as="geometry">
            <mxPoint as="offset" />
          </mxGeometry>
        </mxCell>
        <mxCell id="xtXBXruxO_-biEpYpfWu-115" style="edgeStyle=orthogonalEdgeStyle;rounded=0;orthogonalLoop=1;jettySize=auto;html=1;exitX=1;exitY=0.5;exitDx=0;exitDy=0;entryX=0.5;entryY=0;entryDx=0;entryDy=0;" edge="1" parent="1" source="xtXBXruxO_-biEpYpfWu-111" target="xtXBXruxO_-biEpYpfWu-114">
          <mxGeometry relative="1" as="geometry" />
        </mxCell>
        <mxCell id="xtXBXruxO_-biEpYpfWu-120" value="False" style="edgeLabel;html=1;align=center;verticalAlign=middle;resizable=0;points=[];" vertex="1" connectable="0" parent="xtXBXruxO_-biEpYpfWu-115">
          <mxGeometry x="-0.3249" y="-1" relative="1" as="geometry">
            <mxPoint as="offset" />
          </mxGeometry>
        </mxCell>
        <mxCell id="xtXBXruxO_-biEpYpfWu-111" value="is importer" style="rhombus;whiteSpace=wrap;html=1;" vertex="1" parent="1">
          <mxGeometry x="317.5" y="1560" width="80" height="80" as="geometry" />
        </mxCell>
        <mxCell id="xtXBXruxO_-biEpYpfWu-114" value="perform analysis for each (CMF, shift)" style="rounded=1;whiteSpace=wrap;html=1;" vertex="1" parent="1">
          <mxGeometry x="458.5" y="1650" width="120" height="60" as="geometry" />
        </mxCell>
        <mxCell id="xtXBXruxO_-biEpYpfWu-116" value="" style="verticalLabelPosition=bottom;verticalAlign=top;html=1;shape=mxgraph.flowchart.sort;" vertex="1" parent="1">
          <mxGeometry x="478.75" y="1750" width="80.25" height="80" as="geometry" />
        </mxCell>
        <mxCell id="xtXBXruxO_-biEpYpfWu-117" style="edgeStyle=orthogonalEdgeStyle;rounded=0;orthogonalLoop=1;jettySize=auto;html=1;exitX=0.5;exitY=1;exitDx=0;exitDy=0;entryX=0.5;entryY=0;entryDx=0;entryDy=0;entryPerimeter=0;" edge="1" parent="1" source="xtXBXruxO_-biEpYpfWu-114" target="xtXBXruxO_-biEpYpfWu-116">
          <mxGeometry relative="1" as="geometry" />
        </mxCell>
        <mxCell id="xtXBXruxO_-biEpYpfWu-121" value="join" style="strokeWidth=2;html=1;shape=mxgraph.flowchart.merge_or_storage;whiteSpace=wrap;" vertex="1" parent="1">
          <mxGeometry x="310" y="1890" width="95" height="50" as="geometry" />
        </mxCell>
        <mxCell id="xtXBXruxO_-biEpYpfWu-122" style="edgeStyle=orthogonalEdgeStyle;rounded=0;orthogonalLoop=1;jettySize=auto;html=1;exitX=0.5;exitY=1;exitDx=0;exitDy=0;entryX=0.5;entryY=0;entryDx=0;entryDy=0;entryPerimeter=0;" edge="1" parent="1" source="xtXBXruxO_-biEpYpfWu-110" target="xtXBXruxO_-biEpYpfWu-121">
          <mxGeometry relative="1" as="geometry">
            <Array as="points">
              <mxPoint x="200" y="1860" />
              <mxPoint x="358" y="1860" />
            </Array>
          </mxGeometry>
        </mxCell>
        <mxCell id="xtXBXruxO_-biEpYpfWu-123" style="edgeStyle=orthogonalEdgeStyle;rounded=0;orthogonalLoop=1;jettySize=auto;html=1;exitX=0.5;exitY=1;exitDx=0;exitDy=0;exitPerimeter=0;entryX=0.5;entryY=0;entryDx=0;entryDy=0;entryPerimeter=0;" edge="1" parent="1" source="xtXBXruxO_-biEpYpfWu-116" target="xtXBXruxO_-biEpYpfWu-121">
          <mxGeometry relative="1" as="geometry" />
        </mxCell>
        <mxCell id="xtXBXruxO_-biEpYpfWu-124" value="" style="strokeWidth=2;html=1;shape=mxgraph.flowchart.annotation_2;align=left;labelPosition=right;pointerEvents=1;" vertex="1" parent="1">
          <mxGeometry x="578.5" y="1630" width="50" height="100" as="geometry" />
        </mxCell>
        <mxCell id="xtXBXruxO_-biEpYpfWu-128" style="edgeStyle=orthogonalEdgeStyle;rounded=0;orthogonalLoop=1;jettySize=auto;html=1;exitX=0.5;exitY=1;exitDx=0;exitDy=0;entryX=0.5;entryY=0;entryDx=0;entryDy=0;" edge="1" parent="1" source="xtXBXruxO_-biEpYpfWu-126" target="xtXBXruxO_-biEpYpfWu-127">
          <mxGeometry relative="1" as="geometry" />
        </mxCell>
        <mxCell id="xtXBXruxO_-biEpYpfWu-126" value="extract shard&amp;nbsp; groups" style="rounded=1;whiteSpace=wrap;html=1;" vertex="1" parent="1">
          <mxGeometry x="690" y="1550" width="100" height="60" as="geometry" />
        </mxCell>
        <mxCell id="xtXBXruxO_-biEpYpfWu-127" value="generate start points in universal shards" style="rounded=1;whiteSpace=wrap;html=1;" vertex="1" parent="1">
          <mxGeometry x="675" y="1660" width="130" height="60" as="geometry" />
        </mxCell>
      </root>
    </mxGraphModel>
  </diagram>
</mxfile>
